# xmcd
#
# Track frame offsets: 
#        150
#        16275
#        30612
#        43287
#        55812
#        74337
#        89937
#        101325
#        115200
#        130150
#        144625
#        157925
#        171100
#        188875
#        203412
#        217450
#
# Disc length: 3042 seconds
#
# Revision: 3
# Processed by: cddbd v1.5.2PL0 Copyright (c) Steve Scherf et al.
# Submitted via: ExactAudioCopy v1.0b3
#
DISCID=eb0be010
DTITLE=Don Williams - 16 Original World Hits
DYEAR=1989
DGENRE=Country
TTITLE0=If I needed you (with Emmylou Harris) (1981)
TTITLE1=Listen to the radio (1982)
TTITLE2=You're my best friend (1975)
TTITLE3=Some broken hearts never mend (1977)
TTITLE4=I believe in you (1980)
TTITLE5=Till the rivers all run dry (1975)
TTITLE6=It must be love (1979)
TTITLE7=I'm just a country boy (1977)
TTITLE8=It's good to see you (1980)
TTITLE9=Amanda (1973)
TTITLE10=Say it again (1976)
TTITLE11=Lay down beside me (1976)
TTITLE12=Only love (1982)
TTITLE13=Tulsa time (1978)
TTITLE14=Come early morning (1973)
TTITLE15=(Turn out the light and) Love me tonight (1975)
EXTD=
EXTT0=
EXTT1=
EXTT2=
EXTT3=
EXTT4=
EXTT5=
EXTT6=
EXTT7=
EXTT8=
EXTT9=
EXTT10=
EXTT11=
EXTT12=
EXTT13=
EXTT14=
EXTT15=
PLAYORDER=
